<?xml version="1.0" encoding="UTF-8"?>
<!DOCTYPE svg PUBLIC "-//W3C//DTD SVG 1.1//EN" "http://www.w3.org/Graphics/SVG/1.1/DTD/svg11.dtd">
<svg version="1.1" xmlns="http://www.w3.org/2000/svg" xmlns:xlink="http://www.w3.org/1999/xlink" x="0" y="0" width="70" height="95" viewBox="0, 0, 70, 95">
  <g id="Ebene_1">
    <path d="M26.44,57.095 C26.44,61.792 30.28,65.613 35,65.613 C39.72,65.613 43.561,61.792 43.561,57.095 C43.561,52.397 39.72,48.576 35,48.576 C30.28,48.576 26.44,52.397 26.44,57.095 z M35,51.267 C36.808,51.267 38.279,52.729 38.279,54.529 C38.279,56.328 36.808,57.792 35,57.792 C33.192,57.792 31.721,56.328 31.721,54.529 C31.721,52.729 33.192,51.267 35,51.267 z M64.794,51.687 L47.405,53.278 L66.631,42.721 C67.907,45.228 68.895,47.904 69.543,50.712 L65.89,51.931 L64.997,51.703 C64.931,51.687 64.863,51.681 64.794,51.687 z M45.786,12.367 C44.5,12.367 43.457,13.405 43.457,14.686 C43.457,15.966 44.5,17.004 45.786,17.004 C47.073,17.004 48.116,15.966 48.116,14.686 C48.116,13.405 47.073,12.367 45.786,12.367 z M50.087,20.925 C48.8,20.925 47.756,21.963 47.756,23.244 C47.756,24.524 48.8,25.563 50.087,25.563 C51.373,25.563 52.416,24.524 52.416,23.244 C52.416,21.963 51.373,20.925 50.087,20.925 z M40.689,15.74 L39.841,14.475 L39.198,14.475 L39.198,4.075 L39.841,3.092 L39.841,0 L42.807,0 L58.553,32.285 C59.095,32.765 59.617,33.265 60.129,33.777 L60.135,34.1 L42.673,47.265 C42.425,47.451 42.363,47.794 42.528,48.056 L45.935,53.412 L44.087,53.581 C43.248,51.438 41.669,49.661 39.658,48.569 C39.955,48.535 40.186,48.287 40.186,47.982 L40.186,23.746 C40.354,23.771 40.522,23.795 40.689,23.822 L40.689,15.74 z M19.747,20.925 C18.46,20.925 17.417,21.963 17.417,23.244 C17.417,24.524 18.46,25.563 19.747,25.563 C21.034,25.563 22.077,24.524 22.077,23.244 C22.077,21.963 21.034,20.925 19.747,20.925 z M24.047,12.367 C22.76,12.367 21.717,13.405 21.717,14.686 C21.717,15.966 22.76,17.004 24.047,17.004 C25.334,17.004 26.377,15.966 26.377,14.686 C26.377,13.405 25.334,12.367 24.047,12.367 z M4.905,51.703 L4.063,51.918 L0.48,50.612 C2.091,43.722 5.733,37.607 10.743,32.925 L26.801,0 L29.767,0 L29.767,3.092 L30.411,4.075 L30.411,14.475 L29.767,14.475 L28.919,15.74 L28.919,23.886 C29.216,23.834 29.514,23.789 29.814,23.745 L29.814,47.982 C29.814,48.287 30.045,48.535 30.342,48.569 C28.329,49.662 26.748,51.443 25.91,53.591 L5.107,51.687 C5.039,51.681 4.971,51.687 4.905,51.703 z M38.993,16.46 L38.993,47.389 L31.007,47.389 L31.007,16.459 C32.318,16.313 33.65,16.236 35,16.236 C36.35,16.236 37.682,16.313 38.993,16.46 z M68.662,53.841 L68.662,60.365 L64.716,61.629 L64.716,61.629 L64.646,61.652 L44.459,59.463 C44.651,58.704 44.754,57.911 44.754,57.095 C44.754,56.282 44.647,55.495 44.458,54.74 L45.542,54.641 L45.542,54.641 L64.801,52.879 L68.662,53.841 z M1.218,53.841 L1.218,60.365 L5.163,61.629 L5.163,61.629 L5.233,61.652 L25.421,59.463 C25.229,58.704 25.126,57.911 25.126,57.095 C25.126,56.282 25.232,55.495 25.422,54.74 L24.338,54.641 L24.338,54.641 L5.079,52.879 L1.218,53.841 z M43.511,80.103 C45.137,80.103 46.456,78.791 46.456,77.172 C46.456,75.554 45.137,74.242 43.511,74.242 C41.884,74.242 40.566,75.554 40.566,77.172 C40.566,78.791 41.884,80.103 43.511,80.103 z M38.04,70.694 C38.04,72.312 39.358,73.625 40.984,73.625 C42.611,73.625 43.929,72.312 43.929,70.694 C43.929,69.076 42.611,67.764 40.984,67.764 C39.358,67.764 38.04,69.076 38.04,70.694 z M35,74.992 C36.627,74.992 37.945,73.68 37.945,72.062 C37.945,70.443 36.627,69.131 35,69.131 C33.373,69.131 32.055,70.443 32.055,72.062 C32.055,73.68 33.373,74.992 35,74.992 z M35,82.005 C36.627,82.005 37.945,80.692 37.945,79.074 C37.945,77.456 36.627,76.144 35,76.144 C33.373,76.144 32.055,77.456 32.055,79.074 C32.055,80.692 33.373,82.005 35,82.005 z M29.084,73.625 C30.711,73.625 32.029,72.312 32.029,70.694 C32.029,69.076 30.711,67.764 29.084,67.764 C27.458,67.764 26.139,69.076 26.139,70.694 C26.139,72.312 27.458,73.625 29.084,73.625 z M26.128,80.103 C27.754,80.103 29.073,78.791 29.073,77.172 C29.073,75.554 27.754,74.242 26.128,74.242 C24.502,74.242 23.183,75.554 23.183,77.172 C23.183,78.791 24.502,80.103 26.128,80.103 z M58.137,80.69 L58.911,85.794 C56.235,88.058 47.038,95 34.926,95 C22.612,95 13.203,87.673 10.673,85.489 L11.4,80.69 L29.546,65.134 C31.103,66.185 32.98,66.801 35,66.801 C36.907,66.801 38.687,66.251 40.192,65.306 L58.137,80.69 z M59.084,79.935 L41.186,64.59 C42.465,63.542 43.472,62.178 44.086,60.617 L64.643,62.846 C64.664,62.849 64.686,62.85 64.708,62.85 C64.769,62.85 64.831,62.84 64.89,62.821 L65.609,62.591 L70,64.221 C68.782,71.84 65.109,78.644 59.817,83.811 L59.284,80.296 C59.262,80.156 59.192,80.027 59.084,79.935 z M10.253,80.296 L9.78,83.414 C4.704,78.298 1.187,71.645 -0,64.219 L4.3,62.594 L5.012,62.821 C5.071,62.84 5.132,62.85 5.194,62.85 C5.216,62.85 5.237,62.849 5.259,62.846 L25.91,60.606 C26.485,62.075 27.409,63.371 28.581,64.394 L10.454,79.935 C10.346,80.027 10.274,80.156 10.253,80.296 z M67.216,29.514 L68.868,29.514 L67.912,25.719 L66.738,25.719 L67.216,29.514 z M64.349,29.514 L66.717,29.514 L66.24,25.719 L64.827,25.719 L64.349,29.514 z M63.851,29.514 L64.328,25.719 L63.155,25.719 L62.199,29.514 L63.851,29.514 z M68.374,25.155 L70,31.861 L70,39.479 L46.659,52.331 L43.83,47.882 L61.136,34.826 L61.171,31.861 L62.724,25.155 L68.374,25.155 z" fill="#000000"/>
  </g>
</svg>
